<svg xmlns="http://www.w3.org/2000/svg" viewBox="0 0 512 512"><g data-name="Coffee Cup"><path d="M448 85.333C448 128 405.333 128 405.333 128 384 128 384 149.333 384 149.333c0 21.334-21.333 21.334-21.333 21.334-21.334 0-21.334 21.333-21.334 21.333 0 21.333-21.333 21.333-21.333 21.333v21.334H84.609c.724-42.667 22.058-64 64.724-64 21.334 0 21.334-21.334 21.334-21.334C170.667 128 192 128 192 128c21.333 0 21.333-21.333 21.333-21.333 0-21.334 21.334-21.334 21.334-21.334h42.666v21.334A21.333 21.333 0 0 0 298.667 128 21.333 21.333 0 0 0 320 106.667a21.333 21.333 0 0 1 21.333-21.334z" style="fill:#f3eee3"/><path d="M234.667 213.333H21.333v128c0 85.334 85.334 106.667 85.334 106.667s0 21.333 21.333 21.333h213.333c21.334 0 21.334-21.333 21.334-21.333S448 426.667 448 341.333v-128z" style="fill:#eae2ce"/><path d="M170.667 448S256 426.667 256 341.333v-128h192v128C448 426.667 362.667 448 362.667 448s0 21.333-21.334 21.333H170.667z" style="fill:#e0d4b7"/><path d="M234.667 256h-192v85.333c0 42.667 42.666 85.334 85.333 85.334h213.333c42.667 0 85.334-42.667 85.334-85.334V256z" style="fill:#993b17"/><path d="M42.667 256v85.333c0 32.649 25.027 65.128 55.875 78.66C80.236 403.582 64 378.55 64 341.332V256z" style="fill:#c28a73"/><path d="M256 341.333c0 42.667-21.333 69.334-42.667 85.334h128c42.667 0 85.334-42.667 85.334-85.334V256H256z" style="fill:#8b2800"/><path d="M362.667 256v166.846c34.448-10.967 64-46.053 64-81.513V256z" style="fill:#7d1a00"/><path d="M149.333 405.333a64.07 64.07 0 0 1-64-64v-64H128v64a21.361 21.361 0 0 0 21.333 21.334z" style="fill:#ad6143"/><path style="fill:#c99884" d="M85.333 277.333H128V320H85.333z"/><path style="fill:#f3eee3" d="M42.667 213.333h192v21.333h-192z"/><path d="M362.667 256A21.333 21.333 0 0 0 384 277.333h21.333A42.667 42.667 0 0 1 448 320a42.667 42.667 0 0 1-42.667 42.667H384A21.333 21.333 0 0 0 362.667 384 21.333 21.333 0 0 0 384 405.333h21.333A85.333 85.333 0 0 0 490.667 320a85.333 85.333 0 0 0-85.334-85.333H384A21.333 21.333 0 0 0 362.667 256z" style="fill:#eae2ce"/><path d="M405.333 384H384v-21.333h21.333A42.709 42.709 0 0 0 448 320h21.333a64.07 64.07 0 0 1-64 64z" style="fill:#d4c3a2"/><path d="M457.865 283.427A64.114 64.114 0 0 0 405.333 256H384v-21.333h21.333a85.514 85.514 0 0 1 70.032 36.552z" style="fill:#f3eee3"/></g></svg>