<svg xmlns="http://www.w3.org/2000/svg" viewBox="0 0 512 512"><g data-name="Fried Egg"><path d="M490.667 298.667c0 129.602-105.064 170.666-234.667 170.666S21.333 428.27 21.333 298.667s105.064-256 234.667-256c149.333 0 234.667 170.666 234.667 256z" style="fill:#eae2ce"/><path d="M256 469.333V384c149.333 0 149.333-55.52 149.333-85.333h85.334c0 113.25-78.959 170.666-234.667 170.666z" style="fill:#e0d4b7"/><path d="M256 469.333c-193.958 0-234.667-92.812-234.667-170.666h21.334C42.667 399.146 112.458 448 256 448s213.333-48.854 213.333-149.333C469.333 215.937 388.333 64 256 64V42.667c145.563 0 234.667 165.75 234.667 256 0 77.854-40.709 170.666-234.667 170.666z" style="fill:#e0d4b7"/><path d="M245.333 362.625a116.457 116.457 0 0 1-82.958-34.333l15.083-15.084a95.99 95.99 0 0 0 135.75-135.75l15.084-15.083a117.292 117.292 0 0 1-82.959 200.25z" style="fill:#e0d4b7"/><circle cx="245.333" cy="245.333" r="96" style="fill:#fdab00"/><path d="M147.292 343.375a138.652 138.652 0 0 1 196.083-196.083l-15.083 15.083a117.32 117.32 0 0 0-165.917 165.917z" style="fill:#f3eee3"/><ellipse cx="213.333" cy="213.333" rx="48.6" ry="35.755" transform="rotate(-45 213.333 213.333)" style="fill:#fdbc34"/><ellipse cx="213.333" cy="192" rx="24.3" ry="17.878" transform="rotate(-45 213.333 192)" style="fill:#fee3aa"/><path d="M245.333 341.313a95.282 95.282 0 0 1-67.875-28.105l30.167-30.166c20.125 20.125 55.292 20.125 75.417 0a53.364 53.364 0 0 0 0-75.417l30.166-30.167a95.98 95.98 0 0 1-67.875 163.855z" style="fill:#f59707"/></g></svg>