<svg xmlns="http://www.w3.org/2000/svg" viewBox="0 0 512 512"><g data-name="Fish Meat"><path d="M490.667 213.333c0-82.475-85.334-170.666-234.667-170.666-170.667 0-234.667 109.524-234.667 192v64c0 82.474 83.73 170.666 213.334 170.666 170.666 0 256-109.526 256-192zM324.417 224c13.129-6.559 30.108-10.667 48.916-10.667s35.788 4.108 48.917 10.667c-13.129 6.559-30.108 10.667-48.917 10.667s-35.787-4.108-48.916-10.667z" style="fill:#3b292a"/><path d="M324.417 224c13.129-6.559 30.108-10.667 48.916-10.667s35.788 4.108 48.917 10.667c-13.129 6.559-30.108 10.667-48.917 10.667h117.334v-21.334c0-82.475-85.334-170.666-234.667-170.666-170.667 0-234.667 109.524-234.667 192h352c-18.808 0-35.787-4.108-48.916-10.667z" style="fill:#7d1a00"/><path d="M256 42.667c-170.667 0-234.667 109.524-234.667 192 0 82.474 83.73 170.666 213.334 170.666 170.666 0 256-109.526 256-192 0-82.475-85.334-170.666-234.667-170.666zm117.333 192c-41.237 0-74.666-19.103-74.666-42.667 0-23.565 33.429-42.667 74.666-42.667S448 168.435 448 192c0 23.564-33.429 42.667-74.667 42.667z" style="fill:#cd3e36"/><path d="M42.667 213.333H32V192h10.667c3.791-.438 17.187-8.292 25.187-12.98 22.646-13.25 50.73-29.687 81.48-29.687 23.978 0 46.958 5.75 69.166 11.313 20.75 5.177 40.188 10.02 58.833 10.02H288V192h-10.667c-21.27 0-41.937-5.156-63.812-10.615-21.167-5.291-42.833-10.718-64.188-10.718-24.958 0-50.27 14.812-70.604 26.718-16.916 9.907-27.646 15.948-36.062 15.948z" style="fill:#c82e25"/><path d="M64 234.667H42.667C42.667 99.667 182.208 64 256 64v21.333c-66.417 0-192 31.209-192 149.334z" style="fill:#d96c66"/><path d="M234.667 405.333c-127.604 0-213.334-88.25-213.334-170.666h21.334c0 72.114 77.145 149.333 192 149.333 160.083 0 234.666-101.844 234.666-170.667h21.334c0 77.427-81.354 192-256 192z" style="fill:#7d1a00"/><path d="M147.833 362.563c-80.604-11.51-103.812-89.646-104.75-92.97l20.5-5.885c.813 2.782 20.563 68.209 87.25 77.73zM106.667 224.02 85.333 224c0-1.135 1.292-114.406 113.375-159.24l7.917 19.813c-98.396 39.354-99.938 135.385-99.958 139.448zM298.667 384c-157.334 0-170.521-136.406-170.625-137.781l21.25-1.792c.437 4.823 12 118.24 149.375 118.24z" style="fill:#ecb8b5"/><path d="M172.688 338.27c-39.855-39.551-44.48-89.926-44.646-92.051l21.25-1.802c.041.448 4.333 44.864 38.437 78.708z" style="fill:#d96c66"/><path d="M384 298.667c-114.75 0-127.792-93.73-127.917-94.677l21.167-2.688c.417 3.104 11.23 76.031 106.75 76.031z" style="fill:#ecb8b5"/><path d="M301.167 275.406c-39.188-27.677-44.854-69.646-45.084-71.416l21.167-2.688c.042.344 4.938 34.594 36.208 56.688z" style="fill:#d96c66"/><path d="M341.333 341.333c-124.646 0-148.896-114.093-149.125-115.24l20.917-4.208c.813 4 21.333 98.115 128.208 98.115z" style="fill:#ecb8b5"/><path d="M234.208 300.573c-33.333-32.615-41.666-72.792-42-74.48l20.917-4.208c.063.355 7.542 35.584 36 63.438z" style="fill:#d96c66"/><path d="m191.958 203.552-21.25-1.77C170.813 200.405 184 64 341.333 64v21.333c-137.937 0-148.958 113.396-149.375 118.22z" style="fill:#ecb8b5"/><path d="m255.667 205.281-20.688-5.198c.25-.937 24.438-93.416 117.021-93.416 66.5 0 90.375 21.958 92.875 24.458l-15.083 15.083C429.729 146.156 409.604 128 352 128c-75.75 0-95.52 74.125-96.333 77.281z" style="fill:#ecb8b5"/><path d="M149.333 277.333c-24.833 0-43.562-6.25-60.083-11.77C73.833 260.426 60.52 256 42.667 256H32v-21.333h10.667c21.333 0 37.583 5.416 53.312 10.656 16.459 5.49 32 10.677 53.354 10.677 21.334 0 43.021-10.844 64-21.333 21.938-10.97 42.667-21.334 64-21.334H288v21.334h-10.667c-16.291 0-34.833 9.27-54.458 19.083-23.188 11.594-47.167 23.583-73.542 23.583z" style="fill:#d96c66"/><path d="M42.667 213.333c21.333 0 64-42.666 106.666-42.666S234.667 192 277.333 192v21.333c-42.666 0-85.333 42.667-128 42.667s-64-21.333-106.666-21.333z" style="fill:#ecb8b5"/><path d="M149.333 256c-21.333 0-37.583-5.417-53.312-10.656-13.875-4.625-26.958-8.99-43.521-10.292l1.667-21.27c19.187 1.51 34.125 6.5 48.583 11.322 15.417 5.136 28.73 9.563 46.583 9.563 16.292 0 34.834-9.271 54.459-19.084 19.5-9.75 39.666-19.833 61.458-22.76l2.833 21.146c-18.25 2.448-36.812 11.729-54.75 20.698-21.937 10.968-42.666 21.333-64 21.333z" style="fill:#e59b96"/><path d="M469.333 192H448c0-23.531-33.5-42.667-74.667-42.667S298.667 168.47 298.667 192h-21.334c0-36.49 41.271-64 96-64s96 27.51 96 64z" style="fill:#c11107"/></g></svg>