<svg xmlns="http://www.w3.org/2000/svg" viewBox="0 0 512 512"><path d="m21.333 490.667 469.334-149.334c0-176.73-143.27-320-320-320z" style="fill:#f59707"/><path d="M266.667 234.646a52.978 52.978 0 0 1-37.709-15.604l15.084-15.084c12.083 12.063 33.208 12.063 45.25 0a32.039 32.039 0 0 0 0-45.25l15.083-15.083a53.313 53.313 0 0 1-37.708 91.02z" style="fill:#ef7f00"/><path transform="rotate(-17.621 261.552 391.849)" style="fill:#e76400" d="M43.922 370.515h435.259v42.669H43.922z"/><path d="M405.333 341.333c0-129.396-105.27-234.666-234.666-234.666a42.324 42.324 0 0 1-24.624-7.946l-13.17 41.392a84.292 84.292 0 0 0 37.794 9.22c105.875 0 192 86.136 192 192a84.273 84.273 0 0 0 9.22 37.793l41.39-13.169a42.317 42.317 0 0 1-7.944-24.624z" style="fill:#e76400"/><path d="M170.667 21.333a42.667 42.667 0 0 0 0 85.334c129.603 0 234.666 105.063 234.666 234.666a42.667 42.667 0 0 0 85.334 0c0-176.731-143.269-320-320-320z" style="fill:#fdcf6d"/><circle cx="448" cy="341.333" r="42.667" style="fill:#fdbc34"/><circle cx="448" cy="341.333" r="21.333" style="fill:#fdab00"/><path d="M160 192v-42.667A10.667 10.667 0 1 0 160 128V85.333A53.333 53.333 0 0 1 160 192zM117.333 341.333a53.333 53.333 0 0 1 0-106.666v42.666a10.667 10.667 0 0 0 0 21.334zM330.667 298.667a53.39 53.39 0 0 1-53.334-53.334H320a10.667 10.667 0 1 0 21.333 0H384a53.39 53.39 0 0 1-53.333 53.334z" style="fill:#c82e25"/><path d="M192 341.313a63.558 63.558 0 0 1-45.25-18.73l15.083-15.083c16.084 16.083 44.25 16.083 60.334 0a42.701 42.701 0 0 0 0-60.333l15.083-15.084A63.98 63.98 0 0 1 192 341.313z" style="fill:#ef7f00"/><circle cx="192" cy="277.333" r="42.667" style="fill:#8b2800"/><circle cx="266.667" cy="352" r="32" style="fill:#8b2800"/><circle cx="85.333" cy="405.333" r="21.333" style="fill:#8b2800"/><circle cx="266.667" cy="181.333" r="32" style="fill:#8b2800"/><path d="M405.98 261.177c-.188-.73-21.043-79.135-98.772-137.448-55.75-41.802-147.52-47.52-148.437-47.573l2.458-42.604c4.271.25 105.646 6.594 171.563 56.052 90.354 67.76 113.625 157.438 114.562 161.219z" style="fill:#fee3aa"/></svg>