<svg xmlns="http://www.w3.org/2000/svg" viewBox="0 0 512 512"><path transform="rotate(-45 394.667 160)" style="fill:#fdab00" d="M273.987 144.915h241.359v30.17H273.987z"/><path d="M43.556 256s-.89-42.667 41.777-42.667c0 0 0-42.666 42.667-42.666 0 0 0-42.667 42.667-42.667 0 0 0-42.667 42.666-42.667 0 0 0-42.666 42.667-42.666s42.667 42.666 42.667 42.666 42.666 0 42.666 42.667c0 0 42.667 0 42.667 42.667 0 0 42.667 0 42.667 42.666 0 0 41.777 0 41.777 42.667l.89 21.333H42.666z" style="fill:#eae2ce"/><circle cx="362.667" cy="256" r="42.667" style="fill:#f3eee3"/><circle cx="277.333" cy="128" r="42.667" style="fill:#f3eee3"/><circle cx="170.667" cy="149.333" r="21.333" style="fill:#f3eee3"/><circle cx="117.333" cy="245.333" r="32" style="fill:#f3eee3"/><circle cx="149.333" cy="213.333" r="21.333" style="fill:#f3eee3"/><path d="M256 256H21.333c0 170.667 128 192 128 192 0 21.333 21.334 42.667 42.667 42.667h128c21.333 0 42.667-21.334 42.667-42.667 0 0 128-21.333 128-192z" style="fill:#993b17"/><path d="M320 490.667h-64v-21.334h64c9.573 0 21.333-11.76 21.333-21.333l.063-17.98 17.666-3.051c4.209-.719 100.073-18.646 109.521-149.636H448V256h42.854l-.375 11.02c-5.27 158.21-122.791 180.115-127.791 180.97l-.021.052c0 21.49-21.136 42.625-42.667 42.625z" style="fill:#8b2800"/><path d="M256 448s128-21.333 128-192H21.333c0 170.667 128 192 128 192 0 21.333 21.334 42.667 42.667 42.667h21.333C234.667 490.667 256 469.333 256 448z" style="fill:#a34e2d"/><path d="M152.635 426.927c-9.614-1.802-94.364-20.917-108.093-137.677l21.187-2.5c11.948 101.604 82.781 117.698 90.823 119.198z" style="fill:#b7745a"/><path transform="rotate(-45 352 117.333)" style="fill:#fdbc34" d="M231.32 102.248h241.359v30.17H231.32z"/><path style="fill:#993b17" d="M170.667 448H256v21.333h-85.333z"/></svg>